# Blender 4.5.3 LTS
# www.blender.org
mtllib player.mtl
o Cube.001
v 0.347722 -0.500000 -0.234381
v 0.347722 0.242592 -0.234381
v 0.347722 -0.500000 0.234380
v 0.347722 0.242592 0.234380
v -0.347722 -0.500000 -0.234380
v -0.347722 0.242592 -0.234380
v -0.347722 -0.500000 0.234381
v -0.347722 0.242592 0.234381
v 0.095144 -0.139653 -0.222038
v 0.051079 -0.169097 -0.222038
v 0.021635 -0.213162 -0.222038
v 0.011296 -0.265140 -0.222038
v 0.021635 -0.317118 -0.222038
v 0.051079 -0.361183 -0.222038
v 0.095144 -0.390627 -0.222038
v 0.110368 -0.139653 -0.258792
v 0.079209 -0.169097 -0.289951
v 0.058390 -0.213162 -0.310771
v 0.051079 -0.265140 -0.318081
v 0.058390 -0.317118 -0.310771
v 0.079209 -0.361183 -0.289951
v 0.110368 -0.390627 -0.258792
v 0.147122 -0.139653 -0.274016
v 0.147122 -0.169097 -0.318082
v 0.147122 -0.213162 -0.347525
v 0.147122 -0.265140 -0.357864
v 0.147122 -0.317118 -0.347525
v 0.147122 -0.361183 -0.318082
v 0.147122 -0.390627 -0.274016
v 0.183876 -0.139653 -0.258792
v 0.215035 -0.169097 -0.289951
v 0.235855 -0.213162 -0.310771
v 0.243165 -0.265140 -0.318082
v 0.235855 -0.317118 -0.310771
v 0.215035 -0.361183 -0.289951
v 0.183876 -0.390627 -0.258792
v 0.199100 -0.139653 -0.222038
v 0.243165 -0.169097 -0.222038
v 0.272609 -0.213162 -0.222038
v 0.282948 -0.265140 -0.222038
v 0.272609 -0.317118 -0.222038
v 0.243165 -0.361183 -0.222038
v 0.199100 -0.390627 -0.222038
v 0.147122 -0.400966 -0.222038
v 0.147122 -0.129314 -0.222038
v -0.198098 -0.139653 -0.222038
v -0.242164 -0.169097 -0.222038
v -0.271607 -0.213162 -0.222038
v -0.281946 -0.265140 -0.222038
v -0.271607 -0.317118 -0.222038
v -0.242164 -0.361183 -0.222038
v -0.198098 -0.390627 -0.222038
v -0.182874 -0.139653 -0.258792
v -0.214033 -0.169097 -0.289951
v -0.234853 -0.213162 -0.310771
v -0.242164 -0.265140 -0.318081
v -0.234853 -0.317118 -0.310771
v -0.214033 -0.361183 -0.289951
v -0.182874 -0.390627 -0.258792
v -0.146120 -0.139653 -0.274016
v -0.146120 -0.169097 -0.318081
v -0.146120 -0.213162 -0.347525
v -0.146120 -0.265140 -0.357864
v -0.146120 -0.317118 -0.347525
v -0.146120 -0.361183 -0.318081
v -0.146120 -0.390627 -0.274016
v -0.109366 -0.139653 -0.258792
v -0.078207 -0.169097 -0.289951
v -0.057388 -0.213162 -0.310771
v -0.050077 -0.265140 -0.318081
v -0.057388 -0.317118 -0.310771
v -0.078207 -0.361183 -0.289951
v -0.109366 -0.390627 -0.258792
v -0.094142 -0.139653 -0.222038
v -0.050077 -0.169097 -0.222038
v -0.020634 -0.213162 -0.222038
v -0.010294 -0.265140 -0.222038
v -0.020634 -0.317118 -0.222038
v -0.050077 -0.361183 -0.222038
v -0.094142 -0.390627 -0.222038
v -0.146120 -0.400966 -0.222038
v -0.146120 -0.129314 -0.222038
v 0.412374 0.212344 -0.409481
v -0.407511 0.212344 -0.409481
v 0.412374 0.212344 0.410405
v -0.407511 0.212344 0.410405
v 0.224673 0.285974 0.222703
v 0.224673 0.285974 -0.221780
v -0.219810 0.285974 -0.221779
v -0.219810 0.285974 0.222703
v 0.412374 0.285974 0.410405
v 0.412374 0.285974 -0.409481
v -0.407511 0.285974 -0.409481
v -0.407511 0.285974 0.410405
v 0.224673 0.449033 0.222703
v 0.224673 0.449033 -0.221780
v -0.219810 0.449033 -0.221779
v -0.219810 0.449033 0.222703
vn 1.0000 -0.0000 -0.0000
vn -0.0000 -0.0000 1.0000
vn -1.0000 -0.0000 -0.0000
vn -0.0000 -0.0000 -1.0000
vn -0.0000 -1.0000 -0.0000
vn -0.0000 1.0000 -0.0000
vn -0.9087 -0.1807 -0.3764
vn -0.7862 0.5253 -0.3256
vn -0.1945 0.9776 -0.0805
vn -0.1945 -0.9776 -0.0805
vn -0.7862 -0.5253 -0.3256
vn -0.9087 0.1807 -0.3764
vn -0.5414 0.8103 -0.2243
vn -0.5414 -0.8103 -0.2243
vn -0.0805 -0.9776 -0.1945
vn -0.3256 -0.5253 -0.7862
vn -0.3764 0.1807 -0.9087
vn -0.2243 0.8103 -0.5414
vn -0.2243 -0.8103 -0.5414
vn -0.3764 -0.1807 -0.9087
vn -0.3256 0.5253 -0.7862
vn -0.0805 0.9776 -0.1945
vn 0.3764 0.1807 -0.9087
vn 0.2243 0.8103 -0.5414
vn 0.2243 -0.8103 -0.5414
vn 0.3764 -0.1807 -0.9087
vn 0.3256 0.5253 -0.7862
vn 0.0805 0.9776 -0.1945
vn 0.0805 -0.9776 -0.1945
vn 0.3256 -0.5253 -0.7862
vn 0.5414 -0.8103 -0.2243
vn 0.9087 -0.1807 -0.3764
vn 0.7862 0.5253 -0.3256
vn 0.1945 0.9776 -0.0805
vn 0.1945 -0.9776 -0.0805
vn 0.7862 -0.5253 -0.3256
vn 0.9087 0.1807 -0.3764
vn 0.5414 0.8103 -0.2243
vt 0.800200 0.565600
vt 0.737078 0.628721
vt 0.737078 0.565600
vt 0.800200 0.628721
vt 0.737078 0.691843
vt 0.800200 0.691843
vt 0.737078 0.754964
vt 0.800200 0.754964
vt 0.737078 0.818086
vt 0.673957 0.754964
vt 0.673957 0.691843
vt 0.863321 0.691843
vt 0.269606 0.700404
vt 0.230836 0.732178
vt 0.241853 0.691779
vt 0.304061 0.747226
vt 0.260151 0.750033
vt 0.290373 0.720807
vt 0.304061 0.777485
vt 0.294122 0.806161
vt 0.284683 0.781445
vt 0.168261 0.726264
vt 0.189003 0.706689
vt 0.193641 0.724689
vt 0.213720 0.694327
vt 0.213554 0.726684
vt 0.245774 0.740125
vt 0.272717 0.763711
vt 0.188728 0.739461
vt 0.204413 0.749142
vt 0.242879 0.773892
vt 0.230263 0.765597
vt 0.256329 0.782323
vt 0.217699 0.757383
vt 0.272567 0.792346
vt 0.214523 0.790798
vt 0.246675 0.805382
vt 0.177053 0.749911
vt 0.200708 0.780595
vt 0.229236 0.799200
vt 0.267328 0.807698
vt 0.188186 0.767291
vt 0.158488 0.781813
vt 0.158732 0.753464
vt 0.168763 0.808585
vt 0.216757 0.839366
vt 0.272380 0.827086
vt 0.189028 0.829897
vt 0.245090 0.837721
vt 0.416077 0.827320
vt 0.407675 0.780075
vt 0.437026 0.809271
vt 0.360372 0.838381
vt 0.377887 0.797855
vt 0.390273 0.838163
vt 0.333337 0.824482
vt 0.312444 0.802383
vt 0.338710 0.805417
vt 0.441388 0.726268
vt 0.450182 0.754219
vt 0.431298 0.750122
vt 0.450182 0.783378
vt 0.419954 0.767072
vt 0.393809 0.790486
vt 0.359951 0.802861
vt 0.420375 0.738927
vt 0.390634 0.756765
vt 0.404273 0.748697
vt 0.377678 0.764235
vt 0.334568 0.789700
vt 0.350844 0.779838
vt 0.364669 0.771700
vt 0.347850 0.748231
vt 0.361857 0.738242
vt 0.335252 0.761064
vt 0.415641 0.723952
vt 0.377522 0.730487
vt 0.323498 0.778070
vt 0.395311 0.725824
vt 0.395366 0.692134
vt 0.420816 0.705533
vt 0.366996 0.691779
vt 0.318809 0.717652
vt 0.304233 0.773462
vt 0.340748 0.699810
vt 0.304812 0.743778
vt 0.571221 0.571221
vt 0.000162 0.000162
vt 0.000162 0.571221
vt 0.176092 0.395290
vt 0.395290 0.395290
vt 0.571221 0.000162
vt 0.176092 0.176092
vt 0.395290 0.176092
vt 0.800200 0.818086
vt 0.863321 0.754964
s 0
usemtl Material.002
f 2/1/1 3/2/1 1/3/1
f 4/4/2 7/5/2 3/2/2
f 8/6/3 5/7/3 7/5/3
f 6/8/4 1/9/4 5/7/4
f 7/5/5 1/10/5 3/11/5
f 4/12/6 6/8/6 8/6/6
f 12/13/7 20/14/7 13/15/7
f 10/16/8 18/17/8 11/18/8
f 9/19/9 45/20/9 16/21/9
f 44/22/10 15/23/10 22/24/10
f 14/25/11 20/14/11 21/26/11
f 12/13/12 18/17/12 19/27/12
f 10/16/13 16/21/13 17/28/13
f 14/25/14 22/24/14 15/23/14
f 44/22/15 22/24/15 29/29/15
f 20/14/16 28/30/16 21/26/16
f 19/27/17 25/31/17 26/32/17
f 16/21/18 24/33/18 17/28/18
f 21/26/19 29/29/19 22/24/19
f 19/27/20 27/34/20 20/14/20
f 18/17/21 24/33/21 25/31/21
f 16/21/22 45/20/22 23/35/22
f 25/31/23 33/36/23 26/32/23
f 23/35/24 31/37/24 24/33/24
f 28/30/25 36/38/25 29/29/25
f 26/32/26 34/39/26 27/34/26
f 25/31/27 31/37/27 32/40/27
f 23/35/28 45/20/28 30/41/28
f 44/22/29 29/29/29 36/38/29
f 27/34/30 35/42/30 28/30/30
f 36/38/31 42/43/31 43/44/31
f 33/36/32 41/45/32 34/39/32
f 31/37/33 39/46/33 32/40/33
f 30/41/34 45/20/34 37/47/34
f 44/22/35 36/38/35 43/44/35
f 34/39/36 42/43/36 35/42/36
f 32/40/37 40/48/37 33/36/37
f 30/41/38 38/49/38 31/37/38
f 49/50/7 57/51/7 50/52/7
f 47/53/8 55/54/8 48/55/8
f 46/56/9 82/57/9 53/58/9
f 81/59/10 52/60/10 59/61/10
f 51/62/11 57/51/11 58/63/11
f 48/55/12 56/64/12 49/50/12
f 47/53/13 53/58/13 54/65/13
f 51/62/14 59/61/14 52/60/14
f 81/59/15 59/61/15 66/66/15
f 58/63/16 64/67/16 65/68/16
f 55/54/17 63/69/17 56/64/17
f 54/65/18 60/70/18 61/71/18
f 59/61/19 65/68/19 66/66/19
f 56/64/20 64/67/20 57/51/20
f 54/65/21 62/72/21 55/54/21
f 53/58/22 82/57/22 60/70/22
f 63/69/23 69/73/23 70/74/23
f 60/70/24 68/75/24 61/71/24
f 65/68/25 73/76/25 66/66/25
f 63/69/26 71/77/26 64/67/26
f 62/72/27 68/75/27 69/73/27
f 60/70/28 82/57/28 67/78/28
f 81/59/29 66/66/29 73/76/29
f 64/67/30 72/79/30 65/68/30
f 73/76/31 79/80/31 80/81/31
f 70/74/32 78/82/32 71/77/32
f 68/75/33 76/83/33 69/73/33
f 67/78/34 82/57/34 74/84/34
f 81/59/35 73/76/35 80/81/35
f 71/77/36 79/80/36 72/79/36
f 69/73/37 77/85/37 70/74/37
f 67/78/38 75/86/38 68/75/38
f 85/87/5 84/88/5 83/89/5
f 88/90/1 95/91/1 87/91/1
f 86/92/3 93/88/3 84/88/3
f 83/89/1 91/87/1 85/87/1
f 85/87/2 94/92/2 86/92/2
f 84/88/4 92/89/4 83/89/4
f 87/91/6 92/89/6 88/90/6
f 88/90/6 93/88/6 89/93/6
f 89/93/6 94/92/6 90/94/6
f 90/94/6 91/87/6 87/91/6
f 97/93/6 95/91/6 96/90/6
f 87/91/2 98/94/2 90/94/2
f 89/93/4 96/90/4 88/90/4
f 90/94/3 97/93/3 89/93/3
f 2/1/1 4/4/1 3/2/1
f 4/4/2 8/6/2 7/5/2
f 8/6/3 6/8/3 5/7/3
f 6/8/4 2/95/4 1/9/4
f 7/5/5 5/7/5 1/10/5
f 4/12/6 2/96/6 6/8/6
f 12/13/7 19/27/7 20/14/7
f 10/16/8 17/28/8 18/17/8
f 14/25/11 13/15/11 20/14/11
f 12/13/12 11/18/12 18/17/12
f 10/16/13 9/19/13 16/21/13
f 14/25/14 21/26/14 22/24/14
f 20/14/16 27/34/16 28/30/16
f 19/27/17 18/17/17 25/31/17
f 16/21/18 23/35/18 24/33/18
f 21/26/19 28/30/19 29/29/19
f 19/27/20 26/32/20 27/34/20
f 18/17/21 17/28/21 24/33/21
f 25/31/23 32/40/23 33/36/23
f 23/35/24 30/41/24 31/37/24
f 28/30/25 35/42/25 36/38/25
f 26/32/26 33/36/26 34/39/26
f 25/31/27 24/33/27 31/37/27
f 27/34/30 34/39/30 35/42/30
f 36/38/31 35/42/31 42/43/31
f 33/36/32 40/48/32 41/45/32
f 31/37/33 38/49/33 39/46/33
f 34/39/36 41/45/36 42/43/36
f 32/40/37 39/46/37 40/48/37
f 30/41/38 37/47/38 38/49/38
f 49/50/7 56/64/7 57/51/7
f 47/53/8 54/65/8 55/54/8
f 51/62/11 50/52/11 57/51/11
f 48/55/12 55/54/12 56/64/12
f 47/53/13 46/56/13 53/58/13
f 51/62/14 58/63/14 59/61/14
f 58/63/16 57/51/16 64/67/16
f 55/54/17 62/72/17 63/69/17
f 54/65/18 53/58/18 60/70/18
f 59/61/19 58/63/19 65/68/19
f 56/64/20 63/69/20 64/67/20
f 54/65/21 61/71/21 62/72/21
f 63/69/23 62/72/23 69/73/23
f 60/70/24 67/78/24 68/75/24
f 65/68/25 72/79/25 73/76/25
f 63/69/26 70/74/26 71/77/26
f 62/72/27 61/71/27 68/75/27
f 64/67/30 71/77/30 72/79/30
f 73/76/31 72/79/31 79/80/31
f 70/74/32 77/85/32 78/82/32
f 68/75/33 75/86/33 76/83/33
f 71/77/36 78/82/36 79/80/36
f 69/73/37 76/83/37 77/85/37
f 67/78/38 74/84/38 75/86/38
f 85/87/5 86/92/5 84/88/5
f 88/90/1 96/90/1 95/91/1
f 86/92/3 94/92/3 93/88/3
f 83/89/1 92/89/1 91/87/1
f 85/87/2 91/87/2 94/92/2
f 84/88/4 93/88/4 92/89/4
f 87/91/6 91/87/6 92/89/6
f 88/90/6 92/89/6 93/88/6
f 89/93/6 93/88/6 94/92/6
f 90/94/6 94/92/6 91/87/6
f 97/93/6 98/94/6 95/91/6
f 87/91/2 95/91/2 98/94/2
f 89/93/4 97/93/4 96/90/4
f 90/94/3 98/94/3 97/93/3
