# Blender 4.5.3 LTS
# www.blender.org
mtllib tree.mtl
o Cube.003
v -0.111066 -0.495947 0.111066
v -0.111066 -0.273814 0.111066
v -0.111066 -0.495947 -0.111066
v -0.111066 -0.273814 -0.111066
v 0.111066 -0.495947 0.111066
v 0.111066 -0.273814 0.111066
v 0.111066 -0.495947 -0.111066
v 0.111066 -0.273814 -0.111066
v -0.390453 -0.249242 0.381862
v -0.390453 -0.249242 -0.400475
v 0.391885 -0.249242 -0.400475
v 0.391885 -0.249242 0.381862
v -0.091956 -0.036581 0.083366
v -0.091956 -0.036581 -0.101978
v 0.093388 -0.036581 -0.101978
v 0.093388 -0.036581 0.083366
v -0.242960 -0.026399 0.234370
v -0.242960 -0.026399 -0.252983
v 0.244392 -0.026399 -0.252983
v 0.244392 -0.026399 0.234370
v -0.006648 0.391471 -0.001942
v -0.006648 0.391471 -0.016671
v 0.008081 0.391471 -0.016671
v 0.008081 0.391471 -0.001942
vn -1.0000 -0.0000 -0.0000
vn -0.0000 -0.0000 -1.0000
vn 1.0000 -0.0000 -0.0000
vn -0.0000 -0.0000 1.0000
vn -0.0000 -1.0000 -0.0000
vn -0.0000 -0.9964 -0.0846
vn 0.5802 0.8144 -0.0000
vn 0.0872 -0.9962 -0.0000
vn -0.0876 -0.9962 -0.0000
vn -0.0000 -0.9959 0.0904
vn -0.0673 -0.9977 -0.0000
vn -0.5802 0.8144 -0.0000
vn -0.0000 0.8144 0.5802
vn -0.0000 0.8144 -0.5802
vn -0.0000 0.4923 0.8705
vn -0.0000 -0.9977 0.0673
vn -0.0000 -0.9977 -0.0673
vn 0.0673 -0.9977 -0.0000
vn -0.0000 1.0000 -0.0000
vn -0.0000 0.4923 -0.8705
vn 0.8705 0.4923 -0.0000
vn -0.8705 0.4923 -0.0000
vt 0.902623 0.046973
vt 0.732684 0.216912
vt 0.732684 0.046973
vt 0.902623 0.216912
vt 0.732684 0.386851
vt 0.902623 0.386851
vt 0.732684 0.556790
vt 0.902623 0.556790
vt 0.732684 0.726729
vt 0.562745 0.556790
vt 0.562745 0.386851
vt 0.000098 0.500000
vt 0.000098 0.250049
vt 0.000098 0.749951
vt 0.000098 0.000098
vt 0.000098 0.999902
vt 0.250049 0.500000
vt 0.902623 0.726729
vt 0.250049 0.749951
s 0
usemtl Sapin
f 2/1/1 3/2/1 1/3/1
f 4/4/2 7/5/2 3/2/2
f 8/6/3 5/7/3 7/5/3
f 6/8/4 1/9/4 5/7/4
f 7/5/5 1/10/5 3/11/5
f 8/12/6 10/13/6 11/12/6
f 11/12/7 16/14/7 12/14/7
f 8/12/8 12/14/8 6/14/8
f 4/13/9 9/15/9 10/13/9
f 6/14/10 9/16/10 2/16/10
f 13/15/11 18/13/11 14/13/11
f 9/15/12 14/13/12 10/13/12
f 12/14/13 13/16/13 9/16/13
f 10/13/14 15/12/14 11/12/14
f 17/16/15 24/14/15 21/16/15
f 16/14/16 17/16/16 13/16/16
f 14/13/17 19/12/17 15/12/17
f 15/12/18 20/14/18 16/14/18
f 22/17/19 24/14/19 23/12/19
f 19/12/20 22/13/20 23/12/20
f 20/14/21 23/12/21 24/14/21
f 18/13/22 21/15/22 22/13/22
f 2/1/1 4/4/1 3/2/1
f 4/4/2 8/6/2 7/5/2
f 8/6/3 6/8/3 5/7/3
f 6/8/4 2/18/4 1/9/4
f 7/5/5 5/7/5 1/10/5
f 8/12/6 4/13/6 10/13/6
f 11/12/7 15/12/7 16/14/7
f 8/12/8 11/12/8 12/14/8
f 4/13/9 2/15/9 9/15/9
f 6/14/10 12/14/10 9/16/10
f 13/15/11 17/15/11 18/13/11
f 9/15/12 13/15/12 14/13/12
f 12/14/13 16/14/13 13/16/13
f 10/13/14 14/13/14 15/12/14
f 17/16/15 20/14/15 24/14/15
f 16/14/16 20/14/16 17/16/16
f 14/13/17 18/13/17 19/12/17
f 15/12/18 19/12/18 20/14/18
f 22/17/19 21/19/19 24/14/19
f 19/12/20 18/13/20 22/13/20
f 20/14/21 19/12/21 23/12/21
f 18/13/22 17/15/22 21/15/22
